# xmcd
#
# Track frame offsets:
# 150
# 20086
# 35298
# 58295
# 77151
# 95789
# 121239
# 140111
# 167220
# 186705
# 219389
#
# Disc length: 3253 seconds
#
#
# Revision: 0
# Processed by: cddbd v1.5.2PL0 Copyright (c) Steve Scherf et al.
# Submitted via: Nero 7, 11, 10, 0 
#
DISCID=aa0cb30b
DTITLE=The Janeys - The Janeys
DYEAR=2002
DGENRE=Blues
TTITLE0=Cool Water
TTITLE1=Let's Get Together
TTITLE2=Bring Me Love
TTITLE3=Why Do I
TTITLE4=Bare Wire
TTITLE5=Hangtime
TTITLE6=Blues Train
TTITLE7=Show You What I Got
TTITLE8=I Don't Know Why
TTITLE9=20 Miles Bad Road
TTITLE10=Unknown
EXTD=
EXTT0=Cool Water
EXTT1=Let's Get Together
EXTT2=Bring Me Love
EXTT3=Why Do I
EXTT4=Bare Wire
EXTT5=Hangtime
EXTT6=Blues Train
EXTT7=Show You What I Got
EXTT8=I Don't Know Why
EXTT9=20 Miles Bad Road
EXTT10=Unknown
PLAYORDER=
